<svg width="303" height="65" viewBox="0 0 303 65" fill="none" xmlns="http://www.w3.org/2000/svg">
<path fill-rule="evenodd" clip-rule="evenodd" d="M186.2 20.8595H188.9V42.3595H202.2V44.8595H186.2V20.8595Z" fill="white"/>
<path fill-rule="evenodd" clip-rule="evenodd" d="M206.1 34.8595V20.8595H208.8V34.6595C208.8 39.8595 211.5 42.7595 216 42.7595C220.4 42.7595 223.1 40.0595 223.1 34.8595V20.8595H225.8V34.6595C225.8 41.6595 221.8 45.2595 215.9 45.2595C210.1 45.2595 206.1 41.6595 206.1 34.8595Z" fill="white"/>
<path fill-rule="evenodd" clip-rule="evenodd" d="M232.1 20.8595H234.6L249.5 40.1595V20.8595H252.1V44.8595H250L234.7 25.1595V44.8595H232.1V20.8595Z" fill="white"/>
<path fill-rule="evenodd" clip-rule="evenodd" d="M257.8 32.9595C257.8 26.0595 262.8 20.4595 269.8 20.4595C274.1 20.4595 276.7 21.9595 279 24.2595L277.2 26.2595C275.2 24.3595 273 22.9595 269.8 22.9595C264.6 22.9595 260.6 27.2595 260.6 32.8595V32.9595C260.6 38.5595 264.6 42.8595 269.8 42.8595C273 42.8595 275.2 41.5595 277.4 39.3595L279.2 41.1595C276.7 43.6595 274 45.3595 269.7 45.3595C262.8 45.3595 257.8 39.8595 257.8 32.9595Z" fill="white"/>
<path fill-rule="evenodd" clip-rule="evenodd" d="M283.8 20.8595H286.5V31.5595H300.2V20.8595H302.9V44.8595H300.2V34.0595H286.5V44.8595H283.8V20.8595Z" fill="white"/>
<path fill-rule="evenodd" clip-rule="evenodd" d="M59.6 41.3595L62.7 37.6595C64.8 39.4595 67.1 40.5595 69.8 40.5595C71.9 40.5595 73.2 39.6595 73.2 38.2595V38.1595C73.2 36.8595 72.4 36.1595 68.4 35.0595C63.6 33.8595 60.6 32.4595 60.6 27.7595V27.6595C60.6 23.2595 64 20.4595 68.9 20.4595C72.3 20.4595 75.3 21.5595 77.7 23.5595L75 27.5595C72.9 26.0595 70.8 25.1595 68.8 25.1595C66.8 25.1595 65.8 26.0595 65.8 27.2595V27.3595C65.8 28.9595 66.8 29.4595 70.9 30.5595C75.7 31.8595 78.4 33.5595 78.4 37.7595V37.8595C78.4 42.6595 74.8 45.3595 69.7 45.3595C66 45.1595 62.4 43.8595 59.6 41.3595Z" fill="#FFAB00"/>
<path fill-rule="evenodd" clip-rule="evenodd" d="M82.8 20.7595H88.4L94.6 30.9595L100.8 20.7595H106.4V44.7595H101.2V29.0595L94.5 39.3595H94.4L87.8 29.1595V44.7595H82.8V20.7595Z" fill="#FFAB00"/>
<path fill-rule="evenodd" clip-rule="evenodd" d="M125.7 34.7595L122.6 26.9595L119.5 34.7595H125.7ZM120.2 20.5595H125L135.1 44.7595H129.7L127.5 39.3595H117.5L115.3 44.7595H110L120.2 20.5595Z" fill="#FFAB00"/>
<path fill-rule="evenodd" clip-rule="evenodd" d="M149.3 32.4595C151.8 32.4595 153.3 31.0595 153.3 29.0595V28.9595C153.3 26.6595 151.7 25.5595 149.2 25.5595H144V32.4595H149.3ZM138.8 20.7595H149.6C152.6 20.7595 154.9 21.6595 156.5 23.1595C157.8 24.4595 158.5 26.3595 158.5 28.6595V28.7595C158.5 32.6595 156.4 35.0595 153.4 36.2595L159.2 44.8595H153.1L148 37.1595H143.9V44.8595H138.8V20.7595Z" fill="#FFAB00"/>
<path fill-rule="evenodd" clip-rule="evenodd" d="M168.8 25.6595H161.6V20.7595H181.2V25.6595H174V44.8595H168.8V25.6595Z" fill="#FFAB00"/>
<path fill-rule="evenodd" clip-rule="evenodd" d="M39.6 26.9397C37.2 26.9397 35 26.1397 33.3 24.7397C31 26.7397 27.8 28.0397 24.2 28.0397C19.7 28.0397 15.8 26.0397 13.5 23.0397C12 24.2397 10.2 24.9397 8.2 24.9397C7.6 24.9397 6.9 24.8397 6.3 24.7397L7.5 38.2397H6.7C6 38.2397 5.4 38.8397 5.5 39.6397L6.3 47.0397C6.4 47.8397 7.1 48.4397 7.8 48.4397C7.8 48.4397 19.8 47.0397 23.8 47.0397C27.7 47.0397 39.4 48.4397 39.4 48.4397C40.1 48.4397 40.8 47.8397 41 47.0397L42.1 39.6397C42.2 38.8397 41.7 38.2397 40.9 38.2397H39.8L41.1 26.9397C40.7 26.9397 40.2 26.9397 39.6 26.9397Z" fill="#FFAB00"/>
<path fill-rule="evenodd" clip-rule="evenodd" d="M39.5 8.9397C38.3 8.9397 37.1 9.2397 36.1 9.7397C34.5 4.6397 29.8 0.939697 24.2 0.939697C19.1 0.939697 14.7 4.13969 12.8 8.63969C11.5 7.53969 9.8 6.9397 8 6.9397C3.6 6.9397 0 10.5397 0 15.0397C0 19.5397 3.6 23.1397 8 23.1397C10.3 23.1397 12.4 22.1397 13.9 20.5397C16.1 24.0397 20 26.2397 24.3 26.2397C27.9 26.2397 31.1 24.6397 33.4 22.2397C34.9 24.0397 37.1 25.2397 39.6 25.2397C44 25.2397 47.6 21.6397 47.6 17.1397C47.6 12.6397 43.9 8.9397 39.5 8.9397Z" fill="#FFAB00"/>
<path fill-rule="evenodd" clip-rule="evenodd" d="M30.7 54.5397C28.1 53.6397 25.1 55.1397 23.6 56.0397C22.4 55.2397 19.6 53.6397 16.7 54.5397C13.1 55.7397 12.7 64.0397 4.90002 58.0397C8.70002 66.7397 14.1 65.9397 17.6 62.2397C20.4 59.3397 22.6 58.8397 23.4 58.7397H23.5C24.3 58.7397 26.8 59.2397 29.7 62.2397C33.2 65.9397 38.6 66.7397 42.4 58.0397C34.7 63.9397 34.3 55.7397 30.7 54.5397Z" fill="white"/>
</svg>
